<?xml version="1.0" encoding="UTF-8"?>
<svg width="135px" height="136px" viewBox="0 0 135 136" version="1.1" xmlns="http://www.w3.org/2000/svg" xmlns:xlink="http://www.w3.org/1999/xlink">
    <!-- Generator: Sketch 43.2 (39069) - http://www.bohemiancoding.com/sketch -->
    <title>Page 1</title>
    <desc>Created with Sketch.</desc>
    <defs>
        <polygon id="path-1" points="135 0.395912245 135 135.591837 0 135.591837 0 0.395912245 135 0.395912245"></polygon>
    </defs>
    <g id="Page-1" stroke="none" stroke-width="1" fill="none" fill-rule="evenodd">
        <g>
            <g id="Group-3" transform="translate(0.000000, 0.012392)">
                <mask id="mask-2" fill="white">
                    <use xlink:href="#path-1"></use>
                </mask>
                <g id="Clip-2"></g>
                <path d="M129.375844,89.6467082 C129.375844,93.2347082 126.592875,96.0468102 123.040688,96.0468102 L11.9413125,96.0468102 C8.400375,96.0468102 5.6244375,93.2347082 5.6244375,89.6467082 L5.6244375,12.3850143 C5.6244375,8.82095306 8.400375,6.02293265 11.9413125,6.02293265 L123.040688,6.02293265 C126.592875,6.02293265 129.375844,8.82095306 129.375844,12.3850143 L129.375844,89.6467082 Z M123.040688,0.395912245 L11.9413125,0.395912245 C5.24475,0.395912245 -0.0005625,5.65821837 -0.0005625,12.3850143 L-0.0005625,89.6467082 C-0.0005625,96.277749 5.35865625,101.673831 11.9413125,101.673831 L123.040688,101.673831 C129.637406,101.673831 135.000844,96.277749 135.000844,89.6467082 L135.000844,12.3850143 C135.000844,5.65821837 129.745688,0.395912245 123.040688,0.395912245 L123.040688,0.395912245 Z M87.786,111.125422 C86.2545938,111.371851 85.2125625,112.818035 85.4586563,114.350116 L88.0292813,129.965239 L46.9977188,129.937076 L49.52475,114.350116 C49.7708438,112.818035 48.7288125,111.371851 47.1974063,111.125422 C45.6252188,110.860688 44.2161563,111.921035 43.9700625,113.448892 L41.2306875,130.574973 C41.2306875,133.33779 43.7056875,135.592259 46.746,135.592259 L88.241625,135.592259 C91.2833438,135.592259 93.754125,133.33779 93.7189688,130.124361 L91.01475,113.448892 C90.7630313,111.921035 89.3300625,110.860688 87.786,111.125422 L87.786,111.125422 Z" id="Fill-1" fill="#FFFFFF" mask="url(#mask-2)"></path>
            </g>
            <path d="M55.9376719,27.2131143 C53.7045469,27.2131143 51.4798594,27.555298 49.3986094,28.2044612 C43.1295469,30.1618082 37.0067344,35.283298 38.6225156,43.7886041 L39.0682969,46.1374204 L36.8253281,46.9597878 C30.3987656,49.3170531 27.9448594,56.0691959 28.8420469,61.5216041 C29.7561094,67.066951 33.8061094,70.4606245 39.6772031,70.602849 L89.9970469,70.6014408 C94.3437656,70.6014408 97.9114219,69.4439306 100.316109,67.2528286 C102.324234,65.4208082 103.430953,62.9255429 103.430953,60.2289102 C103.430953,54.4357265 98.2489219,48.5693184 88.3432969,48.5693184 L86.1101719,48.5693184 L85.6039219,46.3908898 C84.1245469,40.0175429 79.5584531,38.0672367 75.6954844,38.9670531 L73.4286094,39.492298 L72.4892344,37.3617469 C69.3631406,30.2843184 62.6201719,27.2131143 55.9376719,27.2131143 M89.9970469,76.235502 L39.6097031,76.235502 C29.1936094,75.9834408 24.3631406,68.9440327 23.2915781,62.4383184 C22.1187656,55.3087878 25.0606406,46.5852163 32.8006406,42.588849 C32.1565781,33.6610939 37.9193906,25.8880327 47.7237656,22.8280939 C57.8501719,19.6695837 70.6681406,22.3098898 76.6770469,33.1583796 C82.1572031,32.8176041 87.9931406,35.9296449 90.4751719,43.011298 C102.684234,43.8688694 109.055953,52.0967673 109.055953,60.2289102 C109.055953,64.5322571 107.296734,68.5046857 104.101734,71.4181755 C100.645172,74.5696449 95.7668906,76.235502 89.9970469,76.235502" id="Fill-4" fill="#FFFFFF"></path>
        </g>
    </g>
</svg>